#Comment line ignore any data following # character 
#Hierarchical Translation and Rotation (.htr) file 
[Header]	
#Header keywords are followed by a single value 
FileType HTR		#Single word string
DataType HTRS		#Translation followed by rotation and scale data
FileVersion 1		#integer
NumSegments 64		#integer
NumFrames 3		#integer
DataFrameRate 30		#integer, data frame rate in this file
EulerRotationOrder ZYX
CalibrationUnits mm
RotationUnits Degrees
GlobalAxisofGravity Y
BoneLengthAxis Y
ScaleFactor 1.00
[SegmentNames&Hierarchy]
#CHILD	PARENT
Pinger_Root GLOBAL
Pelvis Pinger_Root
L_Hip Pelvis
R_Hip Pelvis
Rear_Leg01 Pelvis
Spine1 Pelvis
L_Leg01 L_Hip
L_Leg02 L_Leg01
L_Leg03 L_Leg02
L_Foot L_Leg03
L_Toe1_01 L_Foot
L_Toe2_01 L_Foot
L_Toe3_01 L_Foot
planeAlignerLeft L_Foot
L_Toe1_02 L_Toe1_01
L_Toe1_03 L_Toe1_02
L_Toe2_02 L_Toe2_01
L_Toe2_03 L_Toe2_02
L_Toe3_02 L_Toe3_01
L_Toe3_03 L_Toe3_02
planeLockWeightLeft planeAlignerLeft
R_Leg01 R_Hip
R_Leg02 R_Leg01
R_Leg03 R_Leg02
R_Foot R_Leg03
planeAlignerRight R_Foot
R_Toe1_01 R_Foot
R_Toe2_01 R_Foot
R_Toe3_01 R_Foot
planeLockWeightRight planeAlignerRight
R_Toe1_02 R_Toe1_01
R_Toe1_03 R_Toe1_02
R_Toe2_02 R_Toe2_01
R_Toe2_03 R_Toe2_02
R_Toe3_02 R_Toe3_01
R_Toe3_03 R_Toe3_02
Rear_Leg02 Rear_Leg01
Rear_Leg03 Rear_Leg02
Rear_Leg04 Rear_Leg03
Rear_Foot Rear_Leg04
planeAlignerCenter Rear_Foot
Rear_Toe1_01 Rear_Foot
Rear_Toe2_01 Rear_Foot
Rear_Toe3_01 Rear_Foot
planeLockWeightCenter planeAlignerCenter
Rear_Toe1_02 Rear_Toe1_01
Rear_Toe1_03 Rear_Toe1_02
Rear_Toe2_02 Rear_Toe2_01
Rear_Toe2_03 Rear_Toe2_02
Rear_Toe3_02 Rear_Toe3_01
Rear_Toe3_03 Rear_Toe3_02
Back_Bone Spine1
Head Spine1
Motor_Bone Back_Bone
Ping_Mechanism Back_Bone
BN_LookIK Head
bottomMouth Head
L_Mouth01 Head
L_mouthFront Head
mouthGun Head
R_Mouth01 Head
R_mouthFront Head
TopMouth Head
weapon_bone Head
[BasePosition]
#SegmentName Tx, Ty, Tz, Rx, Ry, Rz, BoneLength
Pinger_Root 0.000000 0.000000 0.000000 -90.000000 0.000000 0.000000 10.000000 
Pelvis 0.000000 0.000000 0.000000 0.000000 0.000000 0.000000 10.000000 
L_Hip 0.000000 0.000000 0.000000 0.000000 0.000000 0.000000 10.000000 
R_Hip 0.000000 0.000000 0.000000 0.000000 0.000000 0.000000 10.000000 
Rear_Leg01 0.000000 0.000000 0.000000 0.000000 0.000000 0.000000 10.000000 
Spine1 0.000000 0.000000 0.000000 0.000000 0.000000 0.000000 10.000000 
L_Leg01 0.000000 0.000000 0.000000 0.000000 0.000000 0.000000 10.000000 
L_Leg02 0.000000 0.000000 0.000000 0.000000 0.000000 0.000000 10.000000 
L_Leg03 0.000000 0.000000 0.000000 0.000000 0.000000 0.000000 10.000000 
L_Foot 0.000000 0.000000 0.000000 0.000000 0.000000 0.000000 10.000000 
L_Toe1_01 0.000000 0.000000 0.000000 0.000000 0.000000 0.000000 10.000000 
L_Toe2_01 0.000000 0.000000 0.000000 0.000000 0.000000 0.000000 10.000000 
L_Toe3_01 0.000000 0.000000 0.000000 0.000000 0.000000 0.000000 10.000000 
planeAlignerLeft 0.000000 0.000000 0.000000 0.000000 0.000000 0.000000 10.000000 
L_Toe1_02 0.000000 0.000000 0.000000 0.000000 0.000000 0.000000 10.000000 
L_Toe1_03 0.000000 0.000000 0.000000 0.000000 0.000000 0.000000 10.000000 
L_Toe2_02 0.000000 0.000000 0.000000 0.000000 0.000000 0.000000 10.000000 
L_Toe2_03 0.000000 0.000000 0.000000 0.000000 0.000000 0.000000 10.000000 
L_Toe3_02 0.000000 0.000000 0.000000 0.000000 0.000000 0.000000 10.000000 
L_Toe3_03 0.000000 0.000000 0.000000 0.000000 0.000000 0.000000 10.000000 
planeLockWeightLeft 0.000000 0.000000 0.000000 0.000000 0.000000 0.000000 10.000000 
R_Leg01 0.000000 0.000000 0.000000 0.000000 0.000000 0.000000 10.000000 
R_Leg02 0.000000 0.000000 0.000000 0.000000 0.000000 0.000000 10.000000 
R_Leg03 0.000000 0.000000 0.000000 0.000000 0.000000 0.000000 10.000000 
R_Foot 0.000000 0.000000 0.000000 0.000000 0.000000 0.000000 10.000000 
planeAlignerRight 0.000000 0.000000 0.000000 0.000000 0.000000 0.000000 10.000000 
R_Toe1_01 0.000000 0.000000 0.000000 0.000000 0.000000 0.000000 10.000000 
R_Toe2_01 0.000000 0.000000 0.000000 0.000000 0.000000 0.000000 10.000000 
R_Toe3_01 0.000000 0.000000 0.000000 0.000000 0.000000 0.000000 10.000000 
planeLockWeightRight 0.000000 0.000000 0.000000 0.000000 0.000000 0.000000 10.000000 
R_Toe1_02 0.000000 0.000000 0.000000 0.000000 0.000000 0.000000 10.000000 
R_Toe1_03 0.000000 0.000000 0.000000 0.000000 0.000000 0.000000 10.000000 
R_Toe2_02 0.000000 0.000000 0.000000 0.000000 0.000000 0.000000 10.000000 
R_Toe2_03 0.000000 0.000000 0.000000 0.000000 0.000000 0.000000 10.000000 
R_Toe3_02 0.000000 0.000000 0.000000 0.000000 0.000000 0.000000 10.000000 
R_Toe3_03 0.000000 0.000000 0.000000 0.000000 0.000000 0.000000 10.000000 
Rear_Leg02 0.000000 0.000000 0.000000 0.000000 0.000000 0.000000 10.000000 
Rear_Leg03 0.000000 0.000000 0.000000 0.000000 0.000000 0.000000 10.000000 
Rear_Leg04 0.000000 0.000000 0.000000 0.000000 0.000000 0.000000 10.000000 
Rear_Foot 0.000000 0.000000 0.000000 0.000000 0.000000 0.000000 10.000000 
planeAlignerCenter 0.000000 0.000000 0.000000 0.000000 0.000000 0.000000 10.000000 
Rear_Toe1_01 0.000000 0.000000 0.000000 0.000000 0.000000 0.000000 10.000000 
Rear_Toe2_01 0.000000 0.000000 0.000000 0.000000 0.000000 0.000000 10.000000 
Rear_Toe3_01 0.000000 0.000000 0.000000 0.000000 0.000000 0.000000 10.000000 
planeLockWeightCenter 0.000000 0.000000 0.000000 0.000000 0.000000 0.000000 10.000000 
Rear_Toe1_02 0.000000 0.000000 0.000000 0.000000 0.000000 0.000000 10.000000 
Rear_Toe1_03 0.000000 0.000000 0.000000 0.000000 0.000000 0.000000 10.000000 
Rear_Toe2_02 0.000000 0.000000 0.000000 0.000000 0.000000 0.000000 10.000000 
Rear_Toe2_03 0.000000 0.000000 0.000000 0.000000 0.000000 0.000000 10.000000 
Rear_Toe3_02 0.000000 0.000000 0.000000 0.000000 0.000000 0.000000 10.000000 
Rear_Toe3_03 0.000000 0.000000 0.000000 0.000000 0.000000 0.000000 10.000000 
Back_Bone 0.000000 0.000000 0.000000 0.000000 0.000000 0.000000 10.000000 
Head 0.000000 0.000000 0.000000 0.000000 0.000000 0.000000 10.000000 
Motor_Bone 0.000000 0.000000 0.000000 0.000000 0.000000 0.000000 10.000000 
Ping_Mechanism 0.000000 0.000000 0.000000 0.000000 0.000000 0.000000 10.000000 
BN_LookIK 0.000000 0.000000 0.000000 0.000000 0.000000 0.000000 10.000000 
bottomMouth 0.000000 0.000000 0.000000 0.000000 0.000000 0.000000 10.000000 
L_Mouth01 0.000000 0.000000 0.000000 0.000000 0.000000 0.000000 10.000000 
L_mouthFront 0.000000 0.000000 0.000000 0.000000 0.000000 0.000000 10.000000 
mouthGun 0.000000 0.000000 0.000000 0.000000 0.000000 0.000000 10.000000 
R_Mouth01 0.000000 0.000000 0.000000 0.000000 0.000000 0.000000 10.000000 
R_mouthFront 0.000000 0.000000 0.000000 0.000000 0.000000 0.000000 10.000000 
TopMouth 0.000000 0.000000 0.000000 0.000000 0.000000 0.000000 10.000000 
weapon_bone 0.000000 0.000000 0.000000 0.000000 0.000000 0.000000 10.000000 
#Beginning of Data. Separated by tabs
#Fr	Tx	Ty	Tz	Rx	Ry	Rz	SF
[Pinger_Root]
76 -0.000020 -2500.000000 0.000000 -0.000075 -0.000000 -0.000020 2500.000000
77 -0.000020 -2500.000000 0.000000 -0.000075 -0.000000 -0.000020 2500.000000
78 -0.000020 -2500.000000 0.000000 -0.000075 -0.000000 -0.000020 2500.000000
[Pelvis]
76 69.966202 927.786621 4429.495117 -92.197884 -84.459877 84.860153 4526.158203
77 70.603630 924.172729 4431.292480 -94.085388 -84.901489 86.666580 4527.188477
78 71.241051 920.558777 4433.090332 -96.320053 -85.336876 88.820213 4528.221680
[L_Hip]
76 5.766392 125.831482 872.656799 160.007889 -46.984470 121.629021 881.701050
77 5.766392 125.831482 872.656799 160.064026 -46.372070 121.906395 881.701050
78 5.766392 125.831482 872.656799 160.094086 -46.094398 122.032654 881.701050
[R_Hip]
76 5.765438 125.836372 -872.654907 37.998520 51.248032 125.452080 881.699829
77 5.765438 125.836372 -872.654907 38.032497 50.766716 125.538467 881.699829
78 5.765438 125.836372 -872.654907 38.065006 50.285389 125.623535 881.699829
[Rear_Leg01]
76 -192.298416 -925.602966 -0.001907 170.266693 2.714696 -160.490326 945.367432
77 -192.298416 -925.602966 -0.001907 170.060516 2.467375 -160.150635 945.367432
78 -192.298416 -925.602966 -0.001907 169.852921 2.221285 -159.810135 945.367432
[Spine1]
76 290.604584 5.007505 0.000477 6.761653 -1.071283 17.847458 290.647736
77 290.604584 5.007505 0.000477 6.905181 -0.938469 18.255329 290.647736
78 290.604584 5.007505 0.000477 7.049635 -0.806685 18.663494 290.647736
[L_Leg01]
76 761.932007 -0.002384 -0.069261 22.678844 -16.714701 -12.157264 761.932068
77 761.932007 -0.002384 -0.069261 22.755426 -16.343090 -11.257533 761.932068
78 761.932007 -0.002384 -0.069261 22.837912 -15.972692 -10.358976 761.932068
[L_Leg02]
76 1441.140503 -0.000954 -0.000715 2.559044 -0.134343 -126.006638 1441.140503
77 1441.140503 -0.000954 -0.000715 2.570373 -0.147189 -126.818611 1441.140503
78 1441.140503 -0.000954 -0.000715 2.581881 -0.159873 -127.630608 1441.140503
[L_Leg03]
76 1686.963989 -0.000715 -0.000954 -0.033138 0.015991 119.591476 1686.963989
77 1686.963989 -0.000715 -0.000954 -0.032065 0.015583 119.195656 1686.963989
78 1686.963989 -0.000715 -0.000954 -0.030989 0.015182 118.799828 1686.963989
[L_Foot]
76 3041.570068 -30.715107 11.297464 1.844788 12.806348 53.767433 3041.746094
77 3041.570068 -30.715107 11.297464 1.879057 12.898778 54.306843 3041.746094
78 3041.570068 -30.715107 11.297464 1.914229 12.990886 54.846485 3041.746094
[L_Toe1_01]
76 -188.216690 -224.732346 -21.137953 93.569626 -6.680436 -172.179428 293.899567
77 -188.216690 -224.732346 -21.137953 93.599571 -6.716806 -172.137604 293.899567
78 -188.216690 -224.732346 -21.137953 93.629478 -6.753198 -172.095779 293.899567
[L_Toe2_01]
76 200.746536 -219.926590 148.838394 -89.767868 -25.872925 -51.634491 332.896027
77 200.746536 -219.926590 148.838394 -89.883095 -26.053408 -52.036686 332.896027
78 200.746536 -219.926590 148.838394 -89.918594 -26.117851 -52.196861 332.896027
[L_Toe3_01]
76 188.832520 -219.859131 -191.078659 -100.097137 14.535886 -66.144897 347.140900
77 188.832520 -219.859131 -191.078659 -99.976990 14.266387 -66.724266 347.140900
78 188.832520 -219.859131 -191.078659 -99.919586 14.133338 -67.019104 347.140900
[planeAlignerLeft]
76 37.376186 -584.343323 96.018173 169.287857 -76.897934 90.445854 593.357910
77 36.330536 -586.413086 97.231026 169.293488 -76.753250 90.329727 595.528381
78 35.284927 -588.482727 98.443817 169.297806 -76.608521 90.214874 597.702393
[L_Toe1_02]
76 413.761139 0.000477 0.000000 0.001384 -25.983080 0.001384 413.761139
77 413.761139 0.000477 0.000000 0.001384 -25.989046 0.001384 413.761139
78 413.761139 0.000477 0.000000 0.001384 -25.995022 0.001384 413.761139
[L_Toe1_03]
76 464.317322 0.000358 -0.000089 0.003840 54.405621 0.003840 464.317322
77 464.317322 0.000358 -0.000089 0.003809 54.110321 0.003809 464.317322
78 464.317322 0.000358 -0.000089 0.003779 53.815006 0.003779 464.317322
[L_Toe2_02]
76 342.235809 -0.000477 0.000238 0.001187 -72.815567 0.001187 342.235809
77 342.235809 -0.000477 0.000238 0.001187 -72.663986 0.001187 342.235809
78 342.235809 -0.000477 0.000238 0.001187 -72.512360 0.001187 342.235809
[L_Toe2_03]
76 420.210846 -0.000715 0.000000 0.002850 86.337883 0.004949 420.210846
77 420.210846 -0.000715 0.000000 0.013112 86.064377 0.014511 420.210846
78 420.210846 -0.000715 0.000000 0.022085 85.790756 0.022785 420.210846
[L_Toe3_02]
76 329.270111 0.000954 0.000000 0.001177 -80.994812 0.001177 329.270111
77 329.270111 0.000954 0.000000 0.001177 -80.869461 0.001177 329.270111
78 329.270111 0.000954 0.000000 0.001177 -80.744049 0.001177 329.270111
[L_Toe3_03]
76 439.137451 -0.001907 0.000954 -179.996613 77.167122 -179.993088 439.137451
77 439.137451 -0.001907 0.000954 -179.996460 77.570076 -179.992935 439.137451
78 439.137451 -0.001907 0.000954 -179.996277 77.972939 -179.992752 439.137451
[planeLockWeightLeft]
76 1000.000488 -0.000264 -0.000095 -0.011826 -0.004376 0.005620 1000.000488
77 1000.000488 -0.000272 -0.000095 -0.011826 -0.004376 0.005620 1000.000488
78 1000.000488 -0.000280 -0.000095 -0.011826 -0.004376 0.005620 1000.000488
[R_Leg01]
76 761.455627 -0.001907 -0.000358 121.908020 -7.072749 36.316948 761.455688
77 761.455627 -0.001907 -0.000358 121.419838 -7.345407 36.151638 761.455688
78 761.455627 -0.001907 -0.000358 120.932137 -7.619468 35.988556 761.455688
[R_Leg02]
76 1441.140625 0.000000 -0.000238 -1.416543 -0.246504 -115.969376 1441.140625
77 1441.140625 0.000000 -0.000238 -1.393420 -0.232873 -116.733727 1441.140625
78 1441.140625 0.000000 -0.000238 -1.370481 -0.218935 -117.498077 1441.140625
[R_Leg03]
76 1686.963989 0.000954 0.001431 0.081733 -0.047061 132.809448 1686.963989
77 1686.963989 0.000954 0.001431 0.081230 -0.045273 132.416367 1686.963989
78 1686.963989 0.000954 0.001431 0.080715 -0.043488 132.023300 1686.963989
[R_Foot]
76 3041.560059 -30.531288 -11.204481 -0.807198 -22.678997 53.830856 3041.734131
77 3041.560059 -30.531288 -11.204481 -0.732161 -23.326742 54.288883 3041.734131
78 3041.560059 -30.531288 -11.204481 -0.662427 -23.974951 54.748207 3041.734131
[planeAlignerRight]
76 -127.144066 -574.026123 -312.905182 -36.580406 -71.378616 -64.320488 666.018982
77 -127.144989 -574.024658 -312.904785 -36.579777 -71.370720 -64.325165 666.017700
78 -127.145927 -574.023254 -312.904358 -36.579113 -71.362785 -64.329895 666.016479
[R_Toe1_01]
76 -188.383347 -224.864899 21.052242 76.446625 -0.445074 -172.721527 294.101532
77 -188.383347 -224.864899 21.052242 76.510010 -0.438981 -172.722977 294.101532
78 -188.383347 -224.864899 21.052242 76.573387 -0.432887 -172.724426 294.101532
[R_Toe2_01]
76 200.637817 -220.002121 -148.787384 -92.169678 32.734173 -59.177887 332.857574
77 200.637817 -220.002121 -148.787384 -92.084442 32.762100 -59.178837 332.857574
78 200.637817 -220.002121 -148.787384 -91.999199 32.790043 -59.179752 332.857574
[R_Toe3_01]
76 188.606735 -220.092957 191.126343 -72.787605 -8.310534 -73.711357 347.192566
77 188.606735 -220.092957 191.126343 -72.875282 -8.339768 -73.720398 347.192566
78 188.606735 -220.092957 191.126343 -72.962959 -8.369025 -73.729416 347.192566
[planeLockWeightRight]
76 1000.000000 0.000277 -0.000430 -0.011823 -0.004379 -0.000027 1000.000000
77 1000.000000 0.000283 -0.000432 -0.011823 -0.004379 -0.000027 1000.000000
78 1000.000000 0.000289 -0.000433 -0.011823 -0.004379 -0.000027 1000.000000
[R_Toe1_02]
76 413.762085 0.000477 -0.000119 0.001394 -24.662292 0.001394 413.762085
77 413.762085 0.000477 -0.000119 0.001394 -24.661730 0.001394 413.762085
78 413.762085 0.000477 -0.000119 0.001394 -24.661167 0.001394 413.762085
[R_Toe1_03]
76 464.317810 0.000000 0.001088 0.006620 69.578316 0.006620 464.317810
77 464.317810 0.000000 0.001088 0.006621 69.581329 0.006621 464.317810
78 464.317810 0.000000 0.001088 0.006622 69.584343 0.006622 464.317810
[R_Toe2_02]
76 342.234741 -0.000954 0.000238 0.001197 -67.219398 0.001197 342.234741
77 342.234741 -0.000954 0.000238 0.001197 -67.219788 0.001197 342.234741
78 342.234741 -0.000954 0.000238 0.001197 -67.220131 0.001197 342.234741
[R_Toe2_03]
76 420.210846 0.000715 -0.000268 0.008233 73.608978 0.008233 420.210846
77 420.210846 0.000715 -0.000268 0.008233 73.609581 0.008233 420.210846
78 420.210846 0.000715 -0.000268 0.008234 73.610229 0.008234 420.210846
[R_Toe3_02]
76 329.270355 -0.000477 -0.000954 0.001184 -74.494476 0.001184 329.270355
77 329.270355 -0.000477 -0.000954 0.001184 -74.499290 0.001184 329.270355
78 329.270355 -0.000477 -0.000954 0.001184 -74.504128 0.001184 329.270355
[R_Toe3_03]
76 439.137939 0.000238 0.001431 -0.011504 83.243408 -0.008002 439.137939
77 439.137939 0.000238 0.001431 -0.011521 83.254707 -0.008018 439.137939
78 439.137939 0.000238 0.001431 -0.011537 83.266212 -0.008035 439.137939
[Rear_Leg02]
76 1162.777710 -0.029802 0.005960 0.493752 -4.811197 -117.413429 1162.777710
77 1162.777710 -0.029802 0.005960 0.575850 -4.154752 -119.377281 1162.777710
78 1162.777710 -0.029802 0.005960 0.610044 -3.708216 -120.914719 1162.777710
[Rear_Leg03]
76 607.192505 -0.013351 -0.073195 0.006513 -0.001991 62.213024 607.192505
77 607.192505 -0.013351 -0.073195 0.006502 -0.002026 62.818615 607.192505
78 607.192505 -0.013351 -0.073195 0.006491 -0.002060 63.424187 607.192505
[Rear_Leg04]
76 995.874512 -0.020504 -0.011921 -0.039994 -0.016529 54.362904 995.874573
77 995.874512 -0.020504 -0.011921 -0.040163 -0.016103 55.576355 995.874573
78 995.874512 -0.020504 -0.011921 -0.040322 -0.015673 56.789402 995.874573
[Rear_Foot]
76 3096.176270 -0.067472 -0.041425 -137.483536 83.979622 56.640251 3096.176270
77 3096.176270 -0.067472 -0.041425 -138.914581 84.556335 54.822739 3096.176270
78 3096.176270 -0.067472 -0.041425 -140.728134 85.127693 52.622967 3096.176270
[planeAlignerCenter]
76 13.276738 -98.170586 -725.841064 11.741155 -0.001481 179.998184 732.570068
77 9.891687 -75.634880 -740.780884 11.972196 -0.001478 179.998184 744.697815
78 6.506636 -53.099171 -755.720764 12.039347 -0.001477 179.998184 757.611816
[Rear_Toe1_01]
76 0.653352 83.966492 -371.173737 -0.168396 35.949375 89.631996 380.553192
77 0.653352 83.966492 -371.173737 -0.046710 37.679077 89.845016 380.553192
78 0.653352 83.966492 -371.173737 0.086257 39.408390 90.067940 380.553192
[Rear_Toe2_01]
76 178.200760 -294.826019 -362.060547 -7.375384 29.931952 -67.464020 499.765686
77 178.200760 -294.826019 -362.060547 -7.406965 31.464701 -67.234741 499.765686
78 178.200760 -294.826019 -362.060547 -7.354539 32.541462 -66.923630 499.765686
[Rear_Toe3_01]
76 -153.359680 -308.780914 -362.060852 3.657638 28.944439 -110.315857 499.952881
77 -153.359680 -308.780914 -362.060852 3.623380 30.481447 -110.810455 499.952881
78 -153.359680 -308.780914 -362.060852 3.527551 31.580282 -111.391052 499.952881
[planeLockWeightCenter]
76 1000.000244 0.000305 -0.000116 -0.011814 -0.004373 -0.000015 1000.000244
77 1000.000244 0.000305 -0.000116 -0.011814 -0.004373 -0.000015 1000.000244
78 1000.000244 0.000305 -0.000116 -0.011814 -0.004373 -0.000015 1000.000244
[Rear_Toe1_02]
76 379.707825 0.194073 0.000477 0.000009 -33.433723 0.000009 379.707855
77 379.707825 0.194073 0.000477 0.001332 -33.578281 0.001332 379.707855
78 379.707825 0.194073 0.000477 0.000914 -33.102936 0.002749 379.707855
[Rear_Toe1_03]
76 500.129700 0.165701 0.000119 0.009585 75.934090 0.009585 500.129761
77 500.129700 0.165701 0.000119 0.000822 69.807297 0.002600 500.129761
78 500.129700 0.165701 0.000119 -0.004320 63.680424 -0.000729 500.129761
[Rear_Toe2_02]
76 340.494507 0.000238 -0.000954 0.001221 -58.176689 0.001221 340.494507
77 340.494507 0.000238 -0.000954 0.001210 -61.960758 0.001210 340.494507
78 340.494507 0.000238 -0.000954 0.001202 -65.172508 0.001202 340.494507
[Rear_Toe2_03]
76 433.103577 0.000000 0.000238 0.003799 53.981094 0.003799 433.103546
77 433.103577 0.000000 0.000238 0.004345 58.658463 0.004345 433.103546
78 433.103577 0.000000 0.000238 0.005026 62.994240 0.005026 433.103546
[Rear_Toe3_02]
76 340.494141 -0.000358 -0.000477 -0.002431 -55.972134 -0.002431 340.494171
77 340.494141 -0.000358 -0.000477 -0.002407 -59.632744 -0.002407 340.494171
78 340.494141 -0.000358 -0.000477 0.006825 -62.729557 -0.008008 340.494171
[Rear_Toe3_03]
76 433.103577 0.001431 -0.000238 0.000120 51.274624 -0.003589 433.103546
77 433.103577 0.001431 -0.000238 -0.000115 55.628620 -0.003775 433.103546
78 433.103577 0.001431 -0.000238 -0.000385 59.659367 -0.004008 433.103546
[Back_Bone]
76 1312.175781 -701.934692 0.000954 0.431662 -1.979044 -85.711166 1488.125488
77 1312.175781 -701.934692 0.000954 0.715519 -1.445629 -85.682838 1488.125488
78 1312.175781 -701.934692 0.000954 0.999586 -0.912361 -85.651894 1488.125488
[Head]
76 1406.159424 809.709290 0.001431 0.092471 -1.323709 7.683195 1622.625488
77 1406.159424 809.709290 0.001431 0.074120 -1.354103 7.700140 1622.625488
78 1406.159424 809.709290 0.001431 0.055760 -1.384491 7.717098 1622.625488
[Motor_Bone]
76 1158.364380 -417.834747 0.000477 -1.032262 -0.905211 -106.889610 1231.419434
77 1158.364380 -417.834747 0.000477 -2.189445 -0.665754 -106.652359 1231.419434
78 1158.364380 -417.834747 0.000477 -1.666450 -0.414009 -106.405983 1231.419434
[Ping_Mechanism]
76 1241.705200 -444.968903 2.463933 0.000103 -0.000053 82.120995 1319.028076
77 1238.892578 -443.861725 1.437604 0.000103 -0.000053 82.120995 1316.005371
78 1236.079956 -442.754578 0.411276 0.000103 -0.000053 82.120995 1312.983398
[BN_LookIK]
76 193.241119 1380.371704 -0.002861 0.000000 89.965736 -31.038179 1393.832153
77 193.241119 1380.371704 -0.002861 0.000000 89.965736 -31.038179 1393.832153
78 193.241119 1380.371704 -0.002861 0.000000 89.965736 -31.038179 1393.832153
[bottomMouth]
76 -435.092926 615.759399 -0.000954 -0.000022 0.000016 73.527184 753.966492
77 -435.092926 615.759399 -0.000954 -0.000022 0.000016 73.527184 753.966492
78 -435.092926 615.759399 -0.000954 -0.000022 0.000016 73.527184 753.966492
[L_Mouth01]
76 554.440979 7.658243 838.222046 150.204178 23.759130 109.605339 1005.027161
77 554.440979 7.658243 838.222046 150.204178 23.759130 109.605339 1005.027161
78 554.440979 7.658243 838.222046 150.204178 23.759130 109.605339 1005.027161
[L_mouthFront]
76 551.629089 934.514771 339.150421 0.000081 2.804060 79.119301 1136.941284
77 551.629089 934.514771 339.150421 0.000081 2.804060 79.119301 1136.941284
78 551.629089 934.514771 339.150421 0.000081 2.804060 79.119301 1136.941284
[mouthGun]
76 55.332661 1627.420898 0.000000 0.000023 0.000009 -11.038128 1628.361328
77 55.332661 1627.420898 0.000000 0.000023 0.000009 -11.038128 1628.361328
78 55.332661 1627.420898 0.000000 0.000023 0.000009 -11.038128 1628.361328
[R_Mouth01]
76 554.442383 7.659197 -838.223938 29.795891 -23.759109 109.605331 1005.029541
77 554.442383 7.659197 -838.223938 29.795891 -23.759109 109.605331 1005.029541
78 554.442383 7.659197 -838.223938 29.795891 -23.759109 109.605331 1005.029541
[R_mouthFront]
76 551.629089 934.514282 -339.151367 0.000029 -2.803930 79.119133 1136.941162
77 551.629089 934.514282 -339.151367 0.000029 -2.803930 79.119133 1136.941162
78 551.629089 934.514282 -339.151367 0.000029 -2.803930 79.119133 1136.941162
[TopMouth]
76 461.269867 -56.106091 -0.008583 -0.000059 -0.000268 92.025169 464.669525
77 461.269867 -56.106091 -0.008583 -0.000059 -0.000268 92.025169 464.669525
78 461.269867 -56.106091 -0.008583 -0.000059 -0.000268 92.025169 464.669525
[weapon_bone]
76 -987.239868 1448.372803 0.001431 0.000000 89.965736 -31.038221 1752.833740
77 -987.239868 1448.372803 0.001431 0.000000 89.965736 -31.038221 1752.833740
78 -987.239868 1448.372803 0.001431 0.000000 89.965736 -31.038221 1752.833740
